<svg id="Capa_1" enable-background="new 0 0 497.005 497.005" height="512" viewBox="0 0 497.005 497.005" width="512" xmlns="http://www.w3.org/2000/svg"><g><path d="m123.003 263.957c-22.091 0-40-17.905-40-39.993 0-16.013 12.984-28.995 29-28.995h273c16.016 0 29 12.981 29 28.995 0 22.087-17.909 39.993-40 39.993z" fill="#f2bb88"/><path d="m369.741 73.899c-3.958-1.485-6.436-5.322-6.265-9.545.018-.446.027-.899.027-1.36 0-26.215-29.239-48.69-70.829-58.175-13.6-3.101-28.02-.167-43.671-.167-63.513 0-111.485 25.554-111.485 60.342 0 .461.009.914.027 1.36.171 4.224-3.702 8.983-7.66 10.468-23.227 8.714-33.713 27.353-33.713 53.62 0 7.709 1.704 15.322 4.99 22.295l10.84 42.233 136.5 1 136.5-1 19.51-41.401c3.286-6.973 4.99-14.587 4.99-22.295v-.001c.001-26.268-16.534-48.66-39.761-57.374z" fill="#9a6a53"/><path d="m303.172 7.56c-6.95-.66-14.11-1-21.42-1-67.56 0-122.32 29.13-122.32 65.06 0 .48.01.95.03 1.41.18 4.36-2.46 8.32-6.67 9.86-24.7 9-42.29 32.13-42.29 59.26 0 3.98.45 7.93 1.34 11.79s2.22 7.63 3.97 11.23l14.52 29.93-18.33-.13-19.51-41.4c-1.65-3.49-2.89-7.13-3.73-10.87s-1.26-7.58-1.26-11.43c0-26.26 16.53-48.66 39.76-57.37 3.96-1.49 6.44-5.32 6.27-9.55-.02-.44-.03-.9-.03-1.36 0-34.78 51.49-62.99 115-62.99 19.791 0 38.41 2.74 54.67 7.56z" fill="#855b47"/><path d="m368.313 190.401c0 50.731-.99 71.957-21.7 100.632-28.56 39.543-64.15 66.408-98.11 66.408s-69.55-26.865-98.11-66.408c-20.71-28.675-21.7-49.901-21.7-100.632 0-15.401 4.244-41.055 12.343-61.487 1.041-2.627 2.333-5.077 3.836-7.335 10.784-16.202 37.51-14.913 55.695-5.948 13.802 6.804 25.424 9.191 45.957 9.191s35.219-1.026 49.021-7.83c18.874-9.304 47.451-11.114 57.766 6.469 1.009 1.72 1.9 3.539 2.659 5.453 8.098 20.432 12.343 46.086 12.343 61.487z" fill="#f2d1a5"/><path d="m353.313 123.46c-4.65-2.27-10.11-3.54-15.9-3.54-4.58 0-9 .82-13.14 2.44-20.84 8.14-47.75 12.62-75.77 12.62s-54.93-4.48-75.77-12.62c-4.14-1.62-8.56-2.44-13.14-2.44-5.79 0-11.25 1.27-15.9 3.54 10.31-17.58 32.95-24.76 51.82-15.45 13.8 6.8 32.46 10.97 52.99 10.97s39.19-4.17 52.99-10.97c18.87-9.31 41.51-2.13 51.82 15.45z" fill="#f2bb88"/><path d="m463.372 497.005c6.208 0 10.916-5.598 9.852-11.715l-4.331-24.889c-4.53-26.045-23.35-47.311-48.65-54.98l-80.74-24.486h-181l-61.61 24.544c-25.37 7.629-55.601 22-60.141 48.105l-3.675 22.896c-1.064 6.116-5.187 17.532 1.021 17.532l7.934 2.992h40.97l169.059-7.247 161.941 7.247h49.37z" fill="#e9a761"/><path d="m178.503 380.94-81.61 24.54c-25.37 7.63-44.26 28.93-48.8 55.03l-6.06 36.49h-8.4c-6.21 0-10.92-5.59-9.85-11.71l4.31-24.78c4.54-26.1 23.43-47.4 48.8-55.03l81.61-24.54z" fill="#e69642"/><g><path d="m294.003 221.467c-4.143 0-7.5-3.358-7.5-7.5v-14.997c0-4.142 3.357-7.5 7.5-7.5s7.5 3.358 7.5 7.5v14.997c0 4.142-3.358 7.5-7.5 7.5z" fill="#9a6a53"/></g><g><path d="m203.003 221.467c-4.143 0-7.5-3.358-7.5-7.5v-14.997c0-4.142 3.357-7.5 7.5-7.5s7.5 3.358 7.5 7.5v14.997c0 4.142-3.358 7.5-7.5 7.5z" fill="#9a6a53"/></g><g><path d="m249.003 253.808c-5.976 0-11.951-1.388-17.398-4.162-3.69-1.88-5.159-6.396-3.278-10.087 1.88-3.691 6.396-5.158 10.087-3.279 6.631 3.378 14.549 3.378 21.18 0 3.692-1.878 8.208-.412 10.087 3.279 1.881 3.691.412 8.207-3.278 10.087-5.449 2.774-11.425 4.162-17.4 4.162z" fill="#f2bb88"/></g><g><path d="m315.003 181.46h-42c-4.143 0-7.5-3.358-7.5-7.5s3.357-7.5 7.5-7.5h42c4.143 0 7.5 3.358 7.5 7.5s-3.358 7.5-7.5 7.5z" fill="#9a6a53"/></g><g><path d="m223.003 181.46h-42c-4.143 0-7.5-3.358-7.5-7.5s3.357-7.5 7.5-7.5h42c4.143 0 7.5 3.358 7.5 7.5s-3.358 7.5-7.5 7.5z" fill="#9a6a53"/></g><g><g><path d="m322.993 306.62-78.596 11.734-69.384-11.734c21.32 0 24.934-31.33 49.384-31.33 4.199 0 7.906-2.106 10.487-.811 5.157 2.589 8.274 6.505 14.119 6.711 8.77-.31 11.4-8.97 23.99-8.97 24.449 0 28.679 34.4 50 34.4z" fill="#9a6a53"/></g></g><g><g><path d="m234.883 274.48c-16.06 7.66-21.88 32.14-39.87 32.14l-11.255 11.734-8.745-11.734c21.32 0 25.55-34.4 50-34.4 4.199 0 7.29.96 9.87 2.26z" fill="#855b47"/></g></g><path d="m87.975 490.467 321.527 3.547c5.118 0 12.316-1.549 12.851-6.638l5.01-10.375 16.738-159.34c.62-5.903-4.009-11.043-9.945-11.043h-362.303l-10.872 5.105c-5.936 0-4.353 4.302-3.733 10.205l20.782 159.585c.535 5.089 4.827 8.954 9.945 8.954z" fill="#909ba6"/><path d="m427.363 477-1.16 11.05c-.53 5.09-4.83 8.95-9.94 8.95h-335.52c-5.11 0-9.41-3.86-9.94-8.95l-17.9-170.39c-.62-5.9 4.01-11.04 9.95-11.04h9l17.241 164.111c.374 3.563 3.379 6.269 6.962 6.269z" fill="#7e8b96"/><path d="m207.034 401.81c0-17.947 5.315-33.51 20.238-41.21 6.361-3.282 13.579-5.135 21.23-5.135 25.601 0 46.356 20.75 46.356 46.347 0 7.642-1.85 14.853-5.127 21.208-7.698 14.93-22.771 18.058-40.729 18.058-25.601-.001-41.968-13.671-41.968-39.268z" fill="#7e8b96"/><path d="m289.733 423.02c-7.7 14.93-23.27 25.14-41.23 25.14-25.6 0-46.36-20.75-46.36-46.35 0-17.95 10.2-33.51 25.13-41.21-3.28 6.35-5.13 13.57-5.13 21.21 0 25.6 20.76 46.35 46.36 46.35 7.65 0 14.87-1.85 21.23-5.14z" fill="#64727a"/></g></svg>